<?xml version="1.0" encoding="UTF-8"?>
<svg version="1.1" xmlns="http://www.w3.org/2000/svg" width="180" height="180">
<path d="M0 0 C1.42913802 -0.01141381 2.85823711 -0.03169346 4.28710938 -0.06152344 C14.54833436 -0.27524921 23.02129557 0.87903285 32.79541016 4.29516602 C33.72144043 4.61670654 34.6474707 4.93824707 35.6015625 5.26953125 C47.98127022 9.7441087 59.91658899 17.54864187 68.79541016 27.29516602 C68.79541016 27.95516602 68.79541016 28.61516602 68.79541016 29.29516602 C69.38837891 29.54008789 69.98134766 29.78500977 70.59228516 30.03735352 C81.41621869 36.21697514 87.86902139 56.19205235 91.10400391 67.62329102 C91.33216797 68.50500977 91.56033203 69.38672852 91.79541016 70.29516602 C91.97048096 70.86654297 92.14555176 71.43791992 92.32592773 72.02661133 C93.3768916 77.10490369 93.02170003 82.43621052 93.03564453 87.60961914 C93.04525489 89.76041784 93.07625502 91.91022021 93.10791016 94.06079102 C93.19824362 105.58205729 91.33405996 115.83358192 86.54541016 126.35766602 C86.24022461 127.03539063 85.93503906 127.71311523 85.62060547 128.41137695 C75.6775167 149.96325178 59.20322333 164.67824086 37.79541016 174.29516602 C36.34521484 174.94678711 36.34521484 174.94678711 34.86572266 175.61157227 C24.99600557 179.77776126 15.72561712 180.64399861 5.10375977 180.61083984 C2.99719047 180.60768739 0.89204046 180.63118102 -1.21435547 180.65649414 C-12.62759557 180.71166337 -22.84467096 178.78312224 -33.26708984 174.04516602 C-33.94046387 173.74433105 -34.61383789 173.44349609 -35.30761719 173.13354492 C-43.60673496 169.3270637 -51.54774815 164.59217843 -58.20458984 158.29516602 C-58.20458984 157.63516602 -58.20458984 156.97516602 -58.20458984 156.29516602 C-58.78595703 156.04637695 -59.36732422 155.79758789 -59.96630859 155.54125977 C-70.11346083 149.89214709 -76.37849833 136.55988014 -80.95458984 126.35766602 C-81.37720093 125.42845337 -81.37720093 125.42845337 -81.80834961 124.48046875 C-86.30089906 114.0461171 -87.72154452 103.78713199 -87.65063477 92.48706055 C-87.64212465 90.42858584 -87.67100601 88.37290032 -87.70263672 86.31469727 C-87.80825338 65.96304965 -79.39037243 44.11725019 -65.20458984 29.29516602 C-64.54458984 29.29516602 -63.88458984 29.29516602 -63.20458984 29.29516602 C-62.93646484 28.65579102 -62.66833984 28.01641602 -62.39208984 27.35766602 C-61.20458984 25.29516602 -61.20458984 25.29516602 -58.20458984 24.29516602 C-57.89779297 23.68157227 -57.59099609 23.06797852 -57.27490234 22.43579102 C-52.7749349 13.43585613 -35.66284158 7.1011678 -26.42724609 3.93579102 C-23.36567349 2.98529153 -20.30772529 2.09817036 -17.20458984 1.29516602 C-16.6317627 1.12082031 -16.05893555 0.94647461 -15.46875 0.7668457 C-10.42446062 -0.28400259 -5.13952975 0.0284433 0 0 Z " fill="#000000" transform="translate(87.20458984375,-0.295166015625)"/>
<path d="M0 0 C21.12 0 42.24 0 64 0 C64 6.27 64 12.54 64 19 C52.12 19 40.24 19 28 19 C28 24.28 28 29.56 28 35 C37.9 35 47.8 35 58 35 C58 40.28 58 45.56 58 51 C48.1 51 38.2 51 28 51 C28 56.94 28 62.88 28 69 C39.88 69 51.76 69 64 69 C64 75.27 64 81.54 64 88 C42.88 88 21.76 88 0 88 C0 58.96 0 29.92 0 0 Z " fill="#8600FB" transform="translate(58,46)"/>
</svg>
